<svg xmlns="http://www.w3.org/2000/svg" viewBox="0 0 172.49 349"><defs><style>.cls-1{fill:#2900d4;}.cls-2{fill:#428596;}.cls-3{fill:aqua;}.cls-11,.cls-12,.cls-4{fill:none;}.cls-11,.cls-4,.cls-5,.cls-6,.cls-7,.cls-9{stroke:#fff;}.cls-11,.cls-12,.cls-4,.cls-5,.cls-6,.cls-7,.cls-9{stroke-miterlimit:10;}.cls-12,.cls-4,.cls-5,.cls-6,.cls-7{stroke-width:2px;}.cls-5{fill:#999;}.cls-6{fill:#e6e6e6;}.cls-7{fill:#4d4d4d;}.cls-8{fill:#ff0;}.cls-9{fill:#f2f2f2;stroke-width:3px;}.cls-10{fill:#fff;}.cls-11{stroke-width:4px;}.cls-12{stroke:aqua;}</style></defs><g id="Layer_1" data-name="Layer 1"><rect class="cls-1" width="172.49" height="349"/></g><g id="Layer_4" data-name="Layer 4"><rect class="cls-2" x="59.11" y="152.91" width="56.92" height="40.09" rx="12"/><rect class="cls-3" x="78.27" y="148.3" width="13.32" height="18.43" rx="6.66"/><rect class="cls-3" x="56.47" y="153.12" width="56.92" height="39.31" rx="12"/><rect class="cls-4" x="75.39" y="163.54" width="19.07" height="7.45" rx="3.72"/><rect class="cls-5" x="80.22" y="174.56" width="9.41" height="7.45" rx="3.72"/><rect class="cls-6" x="95.06" y="174.56" width="9.41" height="7.45" rx="3.72"/><rect class="cls-7" x="65.39" y="174.56" width="9.41" height="7.45" rx="3.72"/><rect class="cls-2" x="52.61" y="90.87" width="70.55" height="48.29" rx="12"/><rect class="cls-3" x="76.36" y="122.51" width="16.51" height="22.85" rx="8.26"/><rect class="cls-8" x="76.36" y="85.13" width="16.51" height="22.85" rx="8.26"/><rect class="cls-3" x="49.34" y="93.44" width="70.55" height="45.69" rx="12"/><rect class="cls-9" x="95.67" y="108.65" width="11.66" height="10.29" rx="5.14"/><rect class="cls-10" x="61.9" y="108.65" width="11.66" height="10.29" rx="5.14"/><path class="cls-11" d="M93,126.05c0,4.2-3.87,7.61-8.64,7.61s-8.63-3.41-8.63-7.61" transform="translate(0.25 0.5)"/><rect class="cls-2" x="63.43" y="196.21" width="48.86" height="13.3" rx="6.65"/><rect class="cls-3" x="61.31" y="196.21" width="48.86" height="13.3" rx="6.65"/><rect class="cls-3" x="70.42" y="207.51" width="30.14" height="9.2" rx="4.6" transform="translate(-126.37 298.09) rotate(-90)"/><path class="cls-3" d="M113.07,241.65H58.93a27.07,27.07,0,0,1,54.14,0Z" transform="translate(0.25 0.5)"/><circle class="cls-2" cx="86.25" cy="242.78" r="21.09"/><polygon class="cls-10" points="89.52 237.12 82.98 237.12 79.71 242.78 82.98 248.45 89.52 248.45 92.79 242.78 89.52 237.12"/><circle class="cls-3" cx="86.25" cy="242.78" r="1.26"/><polygon class="cls-3" points="69.19 111.5 66.3 111.5 64.86 114 66.3 116.5 69.19 116.5 70.63 114 69.19 111.5"/><polygon class="cls-3" points="103.19 111.5 100.3 111.5 98.86 114 100.3 116.5 103.19 116.5 104.63 114 103.19 111.5"/><polyline class="cls-12" points="116.03 157.52 139.56 178.29 119.89 196.21 123.16 206.42 119.89 209.5"/><polyline class="cls-12" points="59.2 157.52 32.42 170.98 56.47 189.61 49.34 197.54 56.47 202.85"/></g></svg>