<svg xmlns="http://www.w3.org/2000/svg" viewBox="0 0 172.49 349"><defs><style>.cls-1,.cls-7{fill:#2900d4;}.cls-2,.cls-4{fill:#fff;}.cls-3{fill:#e7ff7f;}.cls-3,.cls-4{stroke:#2900d4;}.cls-3,.cls-4,.cls-5,.cls-6,.cls-7{stroke-miterlimit:10;}.cls-5,.cls-6{fill:none;}.cls-5{stroke:#b915ff;}.cls-6,.cls-7{stroke:#e7ff7f;}.cls-7{stroke-width:3px;}</style></defs><g id="Layer_1" data-name="Layer 1"><rect class="cls-1" width="172.49" height="349"/><path class="cls-2" d="M.93,305a27.47,27.47,0,0,1,9.88-7.56A21.05,21.05,0,0,1,23.33,296c4.2.88,8,2.77,11.7,4.57,1.86.89,3.7,1.8,5.57,2.56a26,26,0,0,0,5.72,1.76,12.77,12.77,0,0,0,11-3c1.59-1.27,3.08-2.71,4.72-4a12.61,12.61,0,0,1,5.59-2.93,9.85,9.85,0,0,1,6.17,1.19A35.4,35.4,0,0,1,79,299.55a50.38,50.38,0,0,0,5,3.58,14.31,14.31,0,0,0,5.57,2.05,6.39,6.39,0,0,0,5.2-1.77c1.39-1.29,2.32-3.16,3.64-4.85a7.68,7.68,0,0,1,2.57-2.3,4.71,4.71,0,0,1,3.66-.19,10.06,10.06,0,0,1,2.93,1.7,30.66,30.66,0,0,1,2.38,2.12,33.07,33.07,0,0,0,4.58,3.94,15.65,15.65,0,0,0,5.22,2.48,8.34,8.34,0,0,0,5.39-.37,10.59,10.59,0,0,0,2.31-1.51c.72-.63,1.4-1.38,2.1-2.12a18.42,18.42,0,0,1,4.95-4.28,8.85,8.85,0,0,1,3.37-.87,10.78,10.78,0,0,1,3.37.4,22.78,22.78,0,0,1,5.85,2.69c1.79,1.1,3.48,2.26,5.25,3.24a15.28,15.28,0,0,0,5.51,2,6.63,6.63,0,0,0,2.81-.24,7.91,7.91,0,0,0,2.52-1.39,13.08,13.08,0,0,0,2-2.17,13.44,13.44,0,0,0,1.45-2.63,14.22,14.22,0,0,0,1-6h.2a13.41,13.41,0,0,1-4,11.55,9,9,0,0,1-2.8,1.72,8,8,0,0,1-3.3.44,15.59,15.59,0,0,1-6.14-1.95c-3.74-1.94-7.05-4.55-10.83-5.44a7.65,7.65,0,0,0-5.35.44,16.66,16.66,0,0,0-4.3,3.88,26.94,26.94,0,0,1-2.26,2.28,9.75,9.75,0,0,1-1.35,1,10.58,10.58,0,0,1-1.51.84,10.14,10.14,0,0,1-6.75.44,17.77,17.77,0,0,1-5.87-2.88,34.39,34.39,0,0,1-4.74-4.22,14.9,14.9,0,0,0-4.58-3.49,3,3,0,0,0-2.36,0,6.1,6.1,0,0,0-2,1.77c-1.26,1.52-2.26,3.41-4,4.89a7.63,7.63,0,0,1-6.24,1.84,15.18,15.18,0,0,1-5.89-2.41c-1.78-1.14-3.36-2.5-5-3.75a34.34,34.34,0,0,0-5.07-3.45,8.92,8.92,0,0,0-5.77-1.1,11.54,11.54,0,0,0-5.18,2.92c-1.54,1.34-3,2.85-4.54,4.23a14.11,14.11,0,0,1-11.94,3.81,25.48,25.48,0,0,1-6.14-1.76c-2-.78-3.83-1.7-5.68-2.62-3.7-1.84-7.36-3.71-11.25-4.65a20.35,20.35,0,0,0-11.79.91,29.59,29.59,0,0,0-10.14,6.73Z" transform="translate(0.25 0.5)"/></g><g id="Layer_2" data-name="Layer 2"><rect class="cls-1" x="0.25" y="0.5" width="172" height="348"/><circle class="cls-3" cx="112.75" cy="135" r="13.5"/><polygon class="cls-2" points="101.4 35.43 96.25 34.27 92.37 37.86 91.88 32.6 87.27 30.01 92.12 27.92 93.15 22.74 96.64 26.71 101.89 26.09 99.19 30.63 101.4 35.43"/><polygon class="cls-2" points="132.52 79.13 127.99 78.11 124.58 81.27 124.15 76.64 120.1 74.37 124.36 72.53 125.27 67.98 128.33 71.47 132.95 70.92 130.57 74.92 132.52 79.13"/><polygon class="cls-2" points="153 46.73 145.25 41.07 136.19 44.25 139.18 35.13 133.36 27.5 142.96 27.52 148.41 19.63 151.36 28.76 160.55 31.52 152.77 37.14 153 46.73"/><polygon class="cls-2" points="26.96 107.87 23.28 105.27 19.06 106.84 20.39 102.53 17.59 99 22.1 98.93 24.6 95.19 26.05 99.45 30.39 100.67 26.78 103.37 26.96 107.87"/><polygon class="cls-2" points="57.4 153.43 52.25 152.27 48.37 155.86 47.88 150.6 43.27 148.01 48.12 145.92 49.15 140.74 52.64 144.71 57.89 144.09 55.19 148.63 57.4 153.43"/><polygon class="cls-2" points="30.03 178.73 26.66 177.97 24.11 180.32 23.8 176.87 20.78 175.18 23.95 173.81 24.63 170.42 26.91 173.02 30.35 172.61 28.58 175.59 30.03 178.73"/><polygon class="cls-2" points="42.03 211.73 38.66 210.97 36.12 213.32 35.8 209.87 32.78 208.18 35.95 206.81 36.63 203.42 38.91 206.02 42.35 205.61 40.58 208.59 42.03 211.73"/><polygon class="cls-4" points="134.03 228.73 130.66 227.97 128.12 230.32 127.8 226.87 124.78 225.18 127.95 223.81 128.63 220.42 130.91 223.02 134.35 222.61 132.58 225.59 134.03 228.73"/><polygon class="cls-2" points="151.03 273.73 147.66 272.97 145.12 275.32 144.8 271.87 141.78 270.18 144.96 268.81 145.63 265.42 147.91 268.02 151.35 267.61 149.58 270.59 151.03 273.73"/><polygon class="cls-2" points="133.03 295.73 129.66 294.97 127.11 297.32 126.8 293.87 123.78 292.18 126.95 290.81 127.63 287.42 129.91 290.02 133.35 289.61 131.58 292.59 133.03 295.73"/><polygon class="cls-2" points="151.03 317.73 147.66 316.97 145.12 319.32 144.8 315.87 141.78 314.18 144.96 312.81 145.63 309.42 147.91 312.02 151.35 311.61 149.58 314.59 151.03 317.73"/><polygon class="cls-4" points="145.81 202.2 133.56 199.43 124.34 207.96 123.19 195.46 112.23 189.32 123.76 184.36 126.21 172.04 134.5 181.48 146.97 180 140.55 190.79 145.81 202.2"/><polygon class="cls-2" points="86.48 332.49 81.3 331.32 77.4 334.92 76.91 329.63 72.28 327.04 77.15 324.94 78.19 319.73 81.69 323.72 86.97 323.1 84.26 327.66 86.48 332.49"/><ellipse class="cls-5" cx="110.74" cy="137.82" rx="3.85" ry="33.7" transform="translate(-63.74 165.31) rotate(-60)"/><ellipse class="cls-6" cx="110.74" cy="134.82" rx="3.85" ry="33.7" transform="translate(-61.14 163.81) rotate(-60)"/><circle class="cls-3" cx="68.25" cy="265.5" r="44"/><circle class="cls-3" cx="51.46" cy="61.57" r="21.5"/><rect class="cls-1" x="0.25" y="0.5" width="172" height="348"/><rect class="cls-7" x="17.25" y="14" width="138" height="321"/><rect class="cls-3" x="22.75" y="166" width="34.5" height="8.5" rx="4.25"/><circle class="cls-7" cx="33.25" cy="198.5" r="4.5"/></g></svg>