<svg xmlns="http://www.w3.org/2000/svg" viewBox="0 0 173 349"><defs><style>.cls-1,.cls-18,.cls-7{fill:#2900d4;}.cls-2,.cls-4{fill:#fff;}.cls-3{fill:#e7ff7f;}.cls-3,.cls-4{stroke:#2900d4;}.cls-10,.cls-11,.cls-12,.cls-13,.cls-15,.cls-16,.cls-17,.cls-18,.cls-3,.cls-4,.cls-5,.cls-6,.cls-7{stroke-miterlimit:10;}.cls-10,.cls-16,.cls-17,.cls-5,.cls-6{fill:none;}.cls-5{stroke:#b915ff;}.cls-6,.cls-7{stroke:#e7ff7f;}.cls-15,.cls-7{stroke-width:3px;}.cls-8{fill:#428596;}.cls-9{fill:aqua;}.cls-10,.cls-11,.cls-12,.cls-13,.cls-15,.cls-16,.cls-18{stroke:#fff;}.cls-10,.cls-11,.cls-12,.cls-13,.cls-17{stroke-width:2px;}.cls-11{fill:#999;}.cls-12{fill:#e6e6e6;}.cls-13{fill:#4d4d4d;}.cls-14{fill:#ff0;}.cls-15{fill:#f2f2f2;}.cls-16{stroke-width:4px;}.cls-17{stroke:aqua;}</style></defs><g id="Layer_1" data-name="Layer 1"><rect class="cls-1" x="0.25" width="172.49" height="349"/><path class="cls-2" d="M.93,305a27.47,27.47,0,0,1,9.88-7.56A21.05,21.05,0,0,1,23.33,296c4.2.88,8,2.77,11.7,4.57,1.86.89,3.7,1.8,5.57,2.56a26,26,0,0,0,5.72,1.76,12.77,12.77,0,0,0,11-3c1.59-1.27,3.08-2.71,4.72-4a12.61,12.61,0,0,1,5.59-2.93,9.85,9.85,0,0,1,6.17,1.19A35.4,35.4,0,0,1,79,299.55a50.38,50.38,0,0,0,5,3.58,14.31,14.31,0,0,0,5.57,2.05,6.39,6.39,0,0,0,5.2-1.77c1.39-1.29,2.32-3.16,3.64-4.85a7.68,7.68,0,0,1,2.57-2.3,4.71,4.71,0,0,1,3.66-.19,10.06,10.06,0,0,1,2.93,1.7,30.66,30.66,0,0,1,2.38,2.12,33.07,33.07,0,0,0,4.58,3.94,15.65,15.65,0,0,0,5.22,2.48,8.34,8.34,0,0,0,5.39-.37,10.59,10.59,0,0,0,2.31-1.51c.72-.63,1.4-1.38,2.1-2.12a18.42,18.42,0,0,1,4.95-4.28,8.85,8.85,0,0,1,3.37-.87,10.78,10.78,0,0,1,3.37.4,22.78,22.78,0,0,1,5.85,2.69c1.79,1.1,3.48,2.26,5.25,3.24a15.28,15.28,0,0,0,5.51,2,6.63,6.63,0,0,0,2.81-.24,7.91,7.91,0,0,0,2.52-1.39,13.08,13.08,0,0,0,2-2.17,13.44,13.44,0,0,0,1.45-2.63,14.22,14.22,0,0,0,1-6h.2a13.41,13.41,0,0,1-4,11.55,9,9,0,0,1-2.8,1.72,8,8,0,0,1-3.3.44,15.59,15.59,0,0,1-6.14-1.95c-3.74-1.94-7.05-4.55-10.83-5.44a7.65,7.65,0,0,0-5.35.44,16.66,16.66,0,0,0-4.3,3.88,26.94,26.94,0,0,1-2.26,2.28,9.75,9.75,0,0,1-1.35,1,10.58,10.58,0,0,1-1.51.84,10.14,10.14,0,0,1-6.75.44,17.77,17.77,0,0,1-5.87-2.88,34.39,34.39,0,0,1-4.74-4.22,14.9,14.9,0,0,0-4.58-3.49,3,3,0,0,0-2.36,0,6.1,6.1,0,0,0-2,1.77c-1.26,1.52-2.26,3.41-4,4.89a7.63,7.63,0,0,1-6.24,1.84,15.18,15.18,0,0,1-5.89-2.41c-1.78-1.14-3.36-2.5-5-3.75a34.34,34.34,0,0,0-5.07-3.45,8.92,8.92,0,0,0-5.77-1.1,11.54,11.54,0,0,0-5.18,2.92c-1.54,1.34-3,2.85-4.54,4.23a14.11,14.11,0,0,1-11.94,3.81,25.48,25.48,0,0,1-6.14-1.76c-2-.78-3.83-1.7-5.68-2.62-3.7-1.84-7.36-3.71-11.25-4.65a20.35,20.35,0,0,0-11.79.91,29.59,29.59,0,0,0-10.14,6.73Z" transform="translate(0.5 0.5)"/></g><g id="Layer_2" data-name="Layer 2"><rect class="cls-1" x="0.5" y="0.5" width="172" height="348"/><circle class="cls-3" cx="113" cy="135" r="13.5"/><polygon class="cls-2" points="101.66 35.43 96.5 34.27 92.62 37.86 92.13 32.6 87.52 30.01 92.38 27.92 93.41 22.74 96.89 26.71 102.14 26.09 99.44 30.63 101.66 35.43"/><polygon class="cls-2" points="132.77 79.13 128.24 78.11 124.83 81.27 124.4 76.64 120.35 74.37 124.61 72.53 125.52 67.98 128.59 71.47 133.2 70.92 130.83 74.92 132.77 79.13"/><polygon class="cls-2" points="153.25 46.73 145.5 41.07 136.44 44.25 139.43 35.13 133.61 27.5 143.21 27.52 148.67 19.63 151.61 28.76 160.8 31.52 153.03 37.14 153.25 46.73"/><polygon class="cls-2" points="27.22 107.87 23.54 105.27 19.31 106.84 20.64 102.53 17.85 99 22.35 98.93 24.85 95.19 26.3 99.45 30.64 100.67 27.04 103.37 27.22 107.87"/><polygon class="cls-2" points="57.66 153.43 52.5 152.27 48.62 155.86 48.13 150.6 43.52 148.01 48.38 145.92 49.41 140.74 52.89 144.71 58.14 144.09 55.44 148.63 57.66 153.43"/><polygon class="cls-2" points="30.28 178.73 26.91 177.97 24.37 180.32 24.05 176.87 21.03 175.18 24.21 173.81 24.88 170.42 27.17 173.02 30.6 172.61 28.84 175.59 30.28 178.73"/><polygon class="cls-2" points="42.28 211.73 38.91 210.97 36.37 213.32 36.05 209.87 33.03 208.18 36.21 206.81 36.88 203.42 39.17 206.02 42.6 205.61 40.84 208.59 42.28 211.73"/><polygon class="cls-4" points="134.28 228.73 130.91 227.97 128.37 230.32 128.05 226.87 125.03 225.18 128.21 223.81 128.88 220.42 131.17 223.02 134.6 222.61 132.84 225.59 134.28 228.73"/><polygon class="cls-2" points="151.28 273.73 147.91 272.97 145.37 275.32 145.05 271.87 142.03 270.18 145.21 268.81 145.88 265.42 148.17 268.02 151.6 267.61 149.84 270.59 151.28 273.73"/><polygon class="cls-2" points="133.28 295.73 129.91 294.97 127.37 297.32 127.05 293.87 124.03 292.18 127.21 290.81 127.88 287.42 130.17 290.02 133.6 289.61 131.84 292.59 133.28 295.73"/><polygon class="cls-2" points="151.28 317.73 147.91 316.97 145.37 319.32 145.05 315.87 142.03 314.18 145.21 312.81 145.88 309.42 148.17 312.02 151.6 311.61 149.84 314.59 151.28 317.73"/><polygon class="cls-4" points="146.06 202.2 133.81 199.43 124.59 207.96 123.44 195.46 112.48 189.32 124.02 184.36 126.46 172.04 134.75 181.48 147.22 180 140.81 190.79 146.06 202.2"/><polygon class="cls-2" points="86.73 332.49 81.55 331.32 77.65 334.92 77.16 329.63 72.53 327.04 77.41 324.94 78.44 319.73 81.95 323.72 87.22 323.1 84.51 327.66 86.73 332.49"/><ellipse class="cls-5" cx="110.74" cy="137.82" rx="3.85" ry="33.7" transform="translate(-63.49 165.31) rotate(-60)"/><ellipse class="cls-6" cx="110.74" cy="134.82" rx="3.85" ry="33.7" transform="translate(-60.89 163.81) rotate(-60)"/><circle class="cls-3" cx="68.5" cy="265.5" r="44"/><circle class="cls-3" cx="51.71" cy="61.57" r="21.5"/><rect class="cls-1" x="0.5" y="0.5" width="172" height="348"/><rect class="cls-7" x="17.5" y="14" width="138" height="321"/><rect class="cls-3" x="23" y="166" width="34.5" height="8.5" rx="4.25"/><circle class="cls-7" cx="33.5" cy="198.5" r="4.5"/></g><g id="Layer_4" data-name="Layer 4"><rect class="cls-8" x="59.36" y="152.91" width="56.92" height="40.09" rx="12"/><rect class="cls-9" x="78.52" y="148.3" width="13.32" height="18.43" rx="6.66"/><rect class="cls-9" x="56.72" y="153.12" width="56.92" height="39.31" rx="12"/><rect class="cls-10" x="75.64" y="163.54" width="19.07" height="7.45" rx="3.72"/><rect class="cls-11" x="80.48" y="174.56" width="9.41" height="7.45" rx="3.72"/><rect class="cls-12" x="95.31" y="174.56" width="9.41" height="7.45" rx="3.72"/><rect class="cls-13" x="65.64" y="174.56" width="9.41" height="7.45" rx="3.72"/><rect class="cls-8" x="52.86" y="90.87" width="70.55" height="48.29" rx="12"/><rect class="cls-9" x="76.61" y="122.51" width="16.51" height="22.85" rx="8.26"/><rect class="cls-14" x="76.61" y="85.13" width="16.51" height="22.85" rx="8.26"/><rect class="cls-9" x="49.59" y="93.44" width="70.55" height="45.69" rx="12"/><rect class="cls-15" x="95.92" y="108.65" width="11.66" height="10.29" rx="5.14"/><rect class="cls-2" x="62.15" y="108.65" width="11.66" height="10.29" rx="5.14"/><path class="cls-16" d="M93,126.05c0,4.2-3.87,7.61-8.64,7.61s-8.63-3.41-8.63-7.61" transform="translate(0.5 0.5)"/><rect class="cls-8" x="63.69" y="196.21" width="48.86" height="13.3" rx="6.65"/><rect class="cls-9" x="61.56" y="196.21" width="48.86" height="13.3" rx="6.65"/><rect class="cls-9" x="70.42" y="207.51" width="30.14" height="9.2" rx="4.6" transform="translate(-126.12 298.09) rotate(-90)"/><path class="cls-9" d="M113.07,241.65H58.93a27.07,27.07,0,0,1,54.14,0Z" transform="translate(0.5 0.5)"/><circle class="cls-8" cx="86.5" cy="242.78" r="21.09"/><polygon class="cls-2" points="89.77 237.12 83.23 237.12 79.96 242.78 83.23 248.45 89.77 248.45 93.04 242.78 89.77 237.12"/><circle class="cls-9" cx="86.5" cy="242.78" r="1.26"/><polygon class="cls-9" points="69.44 111.5 66.56 111.5 65.11 114 66.56 116.5 69.44 116.5 70.89 114 69.44 111.5"/><polygon class="cls-9" points="103.44 111.5 100.56 111.5 99.11 114 100.56 116.5 103.44 116.5 104.89 114 103.44 111.5"/><polyline class="cls-17" points="116.28 157.52 139.81 178.29 120.14 196.21 123.41 206.42 120.14 209.5"/><polyline class="cls-17" points="59.45 157.52 32.67 170.98 56.72 189.61 49.59 197.54 56.72 202.85"/></g><g id="Layer_5" data-name="Layer 5"><rect class="cls-18" x="0.5" y="0.5" width="172" height="348"/><circle class="cls-3" cx="113" cy="135" r="13.5"/><polygon class="cls-2" points="101.66 35.43 96.5 34.27 92.62 37.86 92.13 32.6 87.52 30.01 92.38 27.92 93.41 22.74 96.89 26.71 102.14 26.09 99.44 30.63 101.66 35.43"/><polygon class="cls-2" points="132.77 79.13 128.24 78.11 124.83 81.27 124.4 76.64 120.35 74.37 124.61 72.53 125.52 67.98 128.59 71.47 133.2 70.92 130.83 74.92 132.77 79.13"/><polygon class="cls-2" points="153.25 46.73 145.5 41.07 136.44 44.25 139.43 35.13 133.61 27.5 143.21 27.52 148.67 19.63 151.61 28.76 160.8 31.52 153.03 37.14 153.25 46.73"/><polygon class="cls-2" points="27.22 107.87 23.54 105.27 19.31 106.84 20.64 102.53 17.85 99 22.35 98.93 24.85 95.19 26.3 99.45 30.64 100.67 27.04 103.37 27.22 107.87"/><polygon class="cls-2" points="57.66 153.43 52.5 152.27 48.62 155.86 48.13 150.6 43.52 148.01 48.38 145.92 49.41 140.74 52.89 144.71 58.14 144.09 55.44 148.63 57.66 153.43"/><polygon class="cls-2" points="30.28 178.73 26.91 177.97 24.37 180.32 24.05 176.87 21.03 175.18 24.21 173.81 24.88 170.42 27.17 173.02 30.6 172.61 28.84 175.59 30.28 178.73"/><polygon class="cls-2" points="42.28 211.73 38.91 210.97 36.37 213.32 36.05 209.87 33.03 208.18 36.21 206.81 36.88 203.42 39.17 206.02 42.6 205.61 40.84 208.59 42.28 211.73"/><polygon class="cls-4" points="134.28 228.73 130.91 227.97 128.37 230.32 128.05 226.87 125.03 225.18 128.21 223.81 128.88 220.42 131.17 223.02 134.6 222.61 132.84 225.59 134.28 228.73"/><polygon class="cls-2" points="151.28 273.73 147.91 272.97 145.37 275.32 145.05 271.87 142.03 270.18 145.21 268.81 145.88 265.42 148.17 268.02 151.6 267.61 149.84 270.59 151.28 273.73"/><polygon class="cls-2" points="133.28 295.73 129.91 294.97 127.37 297.32 127.05 293.87 124.03 292.18 127.21 290.81 127.88 287.42 130.17 290.02 133.6 289.61 131.84 292.59 133.28 295.73"/><polygon class="cls-2" points="151.28 317.73 147.91 316.97 145.37 319.32 145.05 315.87 142.03 314.18 145.21 312.81 145.88 309.42 148.17 312.02 151.6 311.61 149.84 314.59 151.28 317.73"/><polygon class="cls-4" points="146.06 202.2 133.81 199.43 124.59 207.96 123.44 195.46 112.48 189.32 124.02 184.36 126.46 172.04 134.75 181.48 147.22 180 140.81 190.79 146.06 202.2"/><polygon class="cls-2" points="86.73 332.49 81.55 331.32 77.65 334.92 77.16 329.63 72.53 327.04 77.41 324.94 78.44 319.73 81.95 323.72 87.22 323.1 84.51 327.66 86.73 332.49"/><ellipse class="cls-5" cx="110.74" cy="137.82" rx="3.85" ry="33.7" transform="translate(-63.49 165.31) rotate(-60)"/><ellipse class="cls-6" cx="110.74" cy="134.82" rx="3.85" ry="33.7" transform="translate(-60.89 163.81) rotate(-60)"/><circle class="cls-3" cx="68.5" cy="265.5" r="44"/><circle class="cls-3" cx="51.71" cy="61.57" r="21.5"/></g></svg>